<?xml version="1.0" encoding="UTF-8" standalone="no"?>
<!DOCTYPE svg PUBLIC "-//W3C//DTD SVG 1.1//EN" "http://www.w3.org/Graphics/SVG/1.1/DTD/svg11.dtd">
<svg width="100%" height="100%" viewBox="0 0 334 40" version="1.1" xmlns="http://www.w3.org/2000/svg" xmlns:xlink="http://www.w3.org/1999/xlink" xml:space="preserve" xmlns:serif="http://www.serif.com/" style="fill-rule:evenodd;clip-rule:evenodd;stroke-linejoin:round;stroke-miterlimit:2;">
    <g transform="matrix(1,0,0,1,-411.99,-171.748)">
        <g transform="matrix(4.66948,0,0,4.66948,-969.421,-1270.78)">
            <path d="M299.776,317.417L302.667,317.417L302.667,311.007L306.617,311.007L306.617,309.021L295.838,309.021L295.838,311.007L299.776,311.007L299.776,317.417Z" style="fill-rule:nonzero;"/>
            <path d="M307.466,317.417L310.223,317.417L310.223,311.605L313.828,317.417L315.366,317.417L318.971,311.605L318.971,317.417L321.801,317.417L321.801,309.021L317.876,309.021L314.701,314.246L311.539,309.021L307.466,309.021L307.466,317.417Z" style="fill-rule:nonzero;"/>
            <path d="M354.417,311.978C354.338,311.678 354.211,311.371 354.036,311.06C353.861,310.748 353.607,310.468 353.274,310.221C352.941,309.974 352.541,309.75 352.075,309.548C351.609,309.347 351.026,309.193 350.326,309.086C349.627,308.98 348.844,308.927 347.978,308.927L323.246,308.927L323.246,317.413L347.991,317.413C349.032,317.413 349.952,317.326 350.751,317.151C351.551,316.976 352.183,316.756 352.65,316.489C353.116,316.223 353.497,315.9 353.792,315.52C354.088,315.14 354.286,314.773 354.386,314.419C354.486,314.065 354.535,313.687 354.535,313.284L354.535,312.942C354.535,312.6 354.496,312.278 354.417,311.978ZM351.488,313.181C351.488,314.641 350.243,315.371 347.753,315.371L326.156,315.371L326.156,310.934L347.753,310.934C350.243,310.934 351.488,311.66 351.488,313.113L351.488,313.181Z" style="fill-rule:nonzero;"/>
            <path d="M355.442,317.406L363.373,317.406C365.905,317.406 367.171,316.599 367.171,314.985L367.171,314.827C367.171,314.48 367.101,314.171 366.962,313.899C366.822,313.628 366.637,313.415 366.407,313.26C366.177,313.106 365.967,312.987 365.778,312.904C365.589,312.821 365.395,312.757 365.198,312.712C365.338,312.674 365.478,312.621 365.617,312.553C365.757,312.485 365.913,312.389 366.086,312.265C366.259,312.14 366.396,311.974 366.499,311.767C366.602,311.559 366.653,311.328 366.653,311.071L366.653,310.913C366.653,310.347 366.399,309.885 365.889,309.527C365.379,309.169 364.516,308.99 363.299,308.99L355.442,308.99L355.442,317.406ZM358.316,310.766L362.805,310.766C363.471,310.766 363.804,310.988 363.804,311.433L363.804,311.456C363.804,311.908 363.471,312.135 362.805,312.135L358.316,312.135L358.316,310.766ZM363.052,313.922C363.809,313.922 364.187,314.182 364.187,314.703L364.187,314.748C364.187,314.966 364.105,315.159 363.94,315.325C363.776,315.491 363.48,315.574 363.052,315.574L358.316,315.574L358.316,313.922L363.052,313.922Z" style="fill-rule:nonzero;"/>
        </g>
    </g>
</svg>
